<svg xmlns="http://www.w3.org/2000/svg" viewBox="0 0 1024 1024" width="1024" height="1024">
  <!-- 単色ロゴマーク(v12「正統進化」/背景透過)。星は濃度差で表現、1色で成立 -->
  <circle cx="512" cy="512" r="340" fill="none" stroke="#2B2933" stroke-width="16"/>
  <circle cx="512" cy="512" r="290" fill="none" stroke="#2B2933" stroke-width="9"
          stroke-linecap="round" stroke-dasharray="0.1 65" opacity="0.45"/>
  <g fill="#2B2933">
    <polygon points="512,257 525,352 512,424 499,352"/>
    <polygon points="767,512 672,525 600,512 672,499"/>
    <polygon points="512,767 499,672 512,600 525,672"/>
    <polygon points="257,512 352,499 424,512 352,525"/>
  </g>
  <g transform="rotate(45 512 512)">
    <path d="M 512 362 Q 528 496 662 512 Q 528 528 512 662 Q 496 528 362 512 Q 496 496 512 362 Z"
          fill="#2B2933" opacity="0.55"/>
  </g>
  <circle cx="512" cy="512" r="9" fill="#FFFFFF" stroke="#2B2933" stroke-width="7"/>
</svg>
